{
  "accessors": [
    {
      "bufferView": 2,
      "componentType": 5126,
      "count": 5995,
      "max": [
        5.078265190124512,
        1.0041744709014893,
        4.597995758056641
      ],
      "min": [
        -7.289567470550537,
        -1.0144922733306885,
        -5.197513580322266
      ],
      "type": "VEC3"
    },
    {
      "bufferView": 2,
      "byteOffset": 71940,
      "componentType": 5126,
      "count": 5995,
      "max": [
        0.9970544576644897,
        1.0,
        0.9992399215698242
      ],
      "min": [
        -0.9970544576644897,
        -1.0,
        -0.9970544576644897
      ],
      "type": "VEC3"
    },
    {
      "bufferView": 1,
      "componentType": 5126,
      "count": 5995,
      "max": [
        1.0,
        1.0
      ],
      "min": [
        0.0,
        0.0
      ],
      "type": "VEC2"
    },
    {
      "bufferView": 0,
      "componentType": 5125,
      "count": 51444,
      "type": "SCALAR"
    },
    {
      "bufferView": 2,
      "byteOffset": 143880,
      "componentType": 5126,
      "count": 13004,
      "max": [
        7.605807304382324,
        1.3119068145751953,
        7.040946006774902
      ],
      "min": [
        -9.811830520629883,
        -1.4146277904510498,
        -7.987862586975098
      ],
      "type": "VEC3"
    },
    {
      "bufferView": 2,
      "byteOffset": 299928,
      "componentType": 5126,
      "count": 13004,
      "max": [
        0.9970544576644897,
        1.0,
        0.9992415308952332
      ],
      "min": [
        -0.9970544576644897,
        -1.0,
        -0.9970544576644897
      ],
      "type": "VEC3"
    },
    {
      "bufferView": 1,
      "byteOffset": 47960,
      "componentType": 5126,
      "count": 13004,
      "max": [
        1.0,
        1.0
      ],
      "min": [
        0.0,
        0.0
      ],
      "type": "VEC2"
    },
    {
      "bufferView": 0,
      "byteOffset": 205776,
      "componentType": 5125,
      "count": 118356,
      "type": "SCALAR"
    },
    {
      "bufferView": 2,
      "byteOffset": 455976,
      "componentType": 5126,
      "count": 2380,
      "max": [
        9.29788589477539,
        0.9935077428817749,
        7.71843147277832
      ],
      "min": [
        -1.9445595741271973,
        -1.0038254261016846,
        -1.9240128993988037
      ],
      "type": "VEC3"
    },
    {
      "bufferView": 2,
      "byteOffset": 484536,
      "componentType": 5126,
      "count": 2380,
      "max": [
        0.9970544576644897,
        1.0,
        0.9970544576644897
      ],
      "min": [
        -0.9970544576644897,
        -1.0,
        -0.9970544576644897
      ],
      "type": "VEC3"
    },
    {
      "bufferView": 1,
      "byteOffset": 151992,
      "componentType": 5126,
      "count": 2380,
      "max": [
        1.0,
        1.0
      ],
      "min": [
        0.0,
        0.0
      ],
      "type": "VEC2"
    },
    {
      "bufferView": 0,
      "byteOffset": 679200,
      "componentType": 5125,
      "count": 18768,
      "type": "SCALAR"
    },
    {
      "bufferView": 2,
      "byteOffset": 513096,
      "componentType": 5126,
      "count": 10760,
      "max": [
        9.456537246704102,
        2.900174856185913,
        8.154415130615234
      ],
      "min": [
        -11.455209732055664,
        -3.2224924564361572,
        -8.834664344787598
      ],
      "type": "VEC3"
    },
    {
      "bufferView": 2,
      "byteOffset": 642216,
      "componentType": 5126,
      "count": 10760,
      "max": [
        0.9970544576644897,
        1.0,
        0.9975574612617493
      ],
      "min": [
        -0.9970544576644897,
        -1.0,
        -0.9970544576644897
      ],
      "type": "VEC3"
    },
    {
      "bufferView": 1,
      "byteOffset": 171032,
      "componentType": 5126,
      "count": 10760,
      "max": [
        1.0,
        1.0
      ],
      "min": [
        0.0,
        0.0
      ],
      "type": "VEC2"
    },
    {
      "bufferView": 0,
      "byteOffset": 754272,
      "componentType": 5125,
      "count": 59640,
      "type": "SCALAR"
    },
    {
      "bufferView": 3,
      "componentType": 5126,
      "count": 101,
      "max": [
        4.208333492279053
      ],
      "min": [
        0.0416666679084301
      ],
      "type": "SCALAR"
    },
    {
      "bufferView": 4,
      "componentType": 5126,
      "count": 101,
      "max": [
        0.4320177435874939,
        0.4320177435874939,
        0.9997178316116333,
        1.0
      ],
      "min": [
        -0.624785840511322,
        -0.6247859001159668,
        -0.9960556030273438,
        0.004202994983643293
      ],
      "type": "VEC4"
    }
  ],
  "animations": [
    {
      "channels": [
        {
          "sampler": 0,
          "target": {
            "node": 3,
            "path": "rotation"
          }
        }
      ],
      "name": "MoleculeAction",
      "samplers": [
        {
          "input": 16,
          "interpolation": "LINEAR",
          "output": 17
        }
      ]
    }
  ],
  "asset": {
    "extras": {
      "author": "alamonda (https://sketchfab.com/astagarnia)",
      "license": "CC-BY-4.0 (http://creativecommons.org/licenses/by/4.0/)",
      "source": "https://sketchfab.com/3d-models/caffeine-chemical-structure-e29bb366569e4bd99649b9c125d1be66",
      "title": "Caffeine, chemical structure"
    },
    "generator": "Sketchfab-15.70.0",
    "version": "2.0"
  },
  "bufferViews": [
    {
      "buffer": 0,
      "byteLength": 992832,
      "name": "floatBufferViews",
      "target": 34963
    },
    {
      "buffer": 0,
      "byteLength": 257112,
      "byteOffset": 992832,
      "byteStride": 8,
      "name": "floatBufferViews",
      "target": 34962
    },
    {
      "buffer": 0,
      "byteLength": 771336,
      "byteOffset": 1249944,
      "byteStride": 12,
      "name": "floatBufferViews",
      "target": 34962
    },
    {
      "buffer": 0,
      "byteLength": 404,
      "byteOffset": 2021280,
      "name": "floatBufferViews"
    },
    {
      "buffer": 0,
      "byteLength": 1616,
      "byteOffset": 2021684,
      "byteStride": 16,
      "name": "floatBufferViews"
    }
  ],
  "buffers": [
    {
      "byteLength": 2023300,
      "uri": "scene.bin"
    }
  ],
  "materials": [
    {
      "doubleSided": true,
      "name": "Nitrogen",
      "pbrMetallicRoughness": {
        "baseColorFactor": [
          0.000233558,
          0.0,
          0.969732,
          1.0
        ],
        "metallicFactor": 0.18379,
        "roughnessFactor": 0.4
      }
    },
    {
      "doubleSided": true,
      "name": "Carbon",
      "pbrMetallicRoughness": {
        "baseColorFactor": [
          0.0214961,
          0.0214961,
          0.0214961,
          1.0
        ],
        "metallicFactor": 0.202055,
        "roughnessFactor": 0.227626
      }
    },
    {
      "doubleSided": true,
      "name": "Oxygen",
      "pbrMetallicRoughness": {
        "baseColorFactor": [
          1.0,
          0.05,
          0.05,
          1.0
        ],
        "metallicFactor": 0.263699,
        "roughnessFactor": 0.288128
      }
    },
    {
      "doubleSided": true,
      "name": "Hydrogen",
      "pbrMetallicRoughness": {
        "baseColorFactor": [
          0.871631,
          0.871631,
          0.871631,
          1.0
        ],
        "metallicFactor": 0.275114,
        "roughnessFactor": 0.261872
      }
    }
  ],
  "meshes": [
    {
      "name": "Object_0",
      "primitives": [
        {
          "attributes": {
            "NORMAL": 1,
            "POSITION": 0,
            "TEXCOORD_0": 2
          },
          "indices": 3,
          "material": 0,
          "mode": 4
        }
      ]
    },
    {
      "name": "Object_1",
      "primitives": [
        {
          "attributes": {
            "NORMAL": 5,
            "POSITION": 4,
            "TEXCOORD_0": 6
          },
          "indices": 7,
          "material": 1,
          "mode": 4
        }
      ]
    },
    {
      "name": "Object_2",
      "primitives": [
        {
          "attributes": {
            "NORMAL": 9,
            "POSITION": 8,
            "TEXCOORD_0": 10
          },
          "indices": 11,
          "material": 2,
          "mode": 4
        }
      ]
    },
    {
      "name": "Object_3",
      "primitives": [
        {
          "attributes": {
            "NORMAL": 13,
            "POSITION": 12,
            "TEXCOORD_0": 14
          },
          "indices": 15,
          "material": 3,
          "mode": 4
        }
      ]
    }
  ],
  "nodes": [
    {
      "children": [
        1
      ],
      "matrix": [
        1.0,
        0.0,
        0.0,
        0.0,
        0.0,
        2.220446049250313e-16,
        -1.0,
        0.0,
        0.0,
        1.0,
        2.220446049250313e-16,
        0.0,
        0.0,
        0.0,
        0.0,
        1.0
      ],
      "name": "Sketchfab_model"
    },
    {
      "children": [
        2
      ],
      "name": "root"
    },
    {
      "children": [
        3
      ],
      "matrix": [
        1.0,
        0.0,
        0.0,
        0.0,
        0.0,
        2.220446049250313e-16,
        1.0,
        0.0,
        0.0,
        -1.0,
        2.220446049250313e-16,
        0.0,
        0.0,
        0.0,
        0.0,
        1.0
      ],
      "name": "GLTF_SceneRootNode"
    },
    {
      "children": [
        4,
        5,
        6,
        7
      ],
      "name": "Molecule_0",
      "scale": [
        0.375,
        0.375,
        0.375
      ],
      "translation": [
        0.032334327697753906,
        -0.0015237636398524046,
        -0.04699516296386719
      ]
    },
    {
      "mesh": 0,
      "name": "Object_4"
    },
    {
      "mesh": 1,
      "name": "Object_5"
    },
    {
      "mesh": 2,
      "name": "Object_6"
    },
    {
      "mesh": 3,
      "name": "Object_7"
    }
  ],
  "scene": 0,
  "scenes": [
    {
      "name": "Sketchfab_Scene",
      "nodes": [
        0
      ]
    }
  ]
}
